<svg id="Слой_2" data-name="Слой 2" xmlns="http://www.w3.org/2000/svg" viewBox="0 0 468 480"><defs><style>.cls-1{fill:#a1f08b;}.cls-2{fill:#8fc997;}.cls-3{fill:#a67c52;}</style></defs><title>appletree</title><path class="cls-1" d="M238.35,366.58s-13.08,2.77-24.79,5.55S188.72,366.7,166,363s-48.16,3.58-62.62,11.9-44.76-2.77-44.76,13.86S43.05,385,35.21,446.06c-3.44,26.8,36.5,31.43,62.66,29.58s136.91-11.18,183.86-8.32c75.75,4.62,96,7.55,134.27,5.68,37.87-1.85,48.38-23.59,47-43s6-42-51-63c-33-12.17-56-10-94-8C286.36,360.67,277.6,348.09,238.35,366.58Z"/><path class="cls-2" d="M217.5,314.5s-6-1-14,3l-8,4s-3,14-6,15-9-5-9-5,3,4-4,8-10,12-10,12-12-1-13-5-8,5-8,5-13-3-12,0-3,13-5,12-10-13-9-16,0-7-8-9-25-5-23-7-10-9-11-9-1-2,4-4,8-5,9-7,12-2-2-6-10-7-7-11-7-17-7-17,0,2-11,0-13-8-11-11-1-12-6-14,1-13-10-8-17,5-17,5,3-9,8-11a25.83,25.83,0,0,0,8-5s16-7,10-12,4-10,7-9,9-11,6-13,8-7-7-10-16-3-16-7,5-11-6-7-20,8-18,7,0-8,5-12,1-12,1-12-11-1-14,2,2-8,14-7c4-5,11-9,11-9s-18-1-24,0c12-8,22-9,25-7s7-1,8-3-2-6-8-5-9,8-13,5,1-12-4-11-9-5-5-5,12-6,15,0,14,5,17,6-2-9-2-9,10-8,5-9,6-10-9-7,1-5,4-5,7-6,7-6-6-4-15,0,5-5-8-2c3-7,14-12,18-7s7,1,7,1,3-9,6-10,7-1,11-3,12-6,7-6-9-1-8-4l2-6s1-6,5-7,13-6,1-5-16,12-17,10-5-8,2-10,9-3,11-5,6,2,6-5a16.28,16.28,0,0,0-.37-4.87c-.7-1.91-2.73-2.16-8.63-4.13-9-3-9-9-7-9s6-1,8,0,8,9,11,12c1-9,9-5,8-12s2-9,2-9,0,8,4,10,1,10,1,10,7,1,7-3,2-12,8-12,4-4,1,4,0,12,0,12,8,2,11-2,11-7,11-7,5,6,8,4a33.37,33.37,0,0,1,12-5c5-1,10,2,13,1s8-4,3-7a39.57,39.57,0,0,1-7-5s3-4,12,2l9,6s-2-10,0-9,3,5,5,6,4-1,7-2,10-9,11-2,5,13,6,11,2-13,6-14,5,0,10,5,10,9,14,5,9,2,6,4-14,7-8,9,8-2,12-3,0,13,3,12,9-12,9-12,11-1,7,8,5,2,6-1,8-8,8-8,1-5,0-5,4-4,6-4,0-15,3-7,4,10,4,10l14,11s-2-21,10-10c-4,2-9,6-5,9s9,6,12,0,9-11,4-1,5,4,5,4,6-4,6-9,5,17,5,17,23,7,18-2,4-9-4-12-7-5-13-4c7-2,7-6,14-3s7,3,8,6,5-7,5-7,2-6,8-6,2-4,0,5-7,11-7,11,3,12,6,7,6-8,10-7,3-2,0,7,15,2,15,2-4,6-3,13a25.41,25.41,0,0,1-1,12s2-10,4-3-4,13-4,13,12-6,16-6,0,10,6,8,11-3,14-2-5,2-7,5,6,1,8,7c6,2,17,3,17,3s-12,1-11,4-6,5-6,5,15-6,17,0-7,2-7,2-11-1-9,2,10,1,12,6-5,7-5,7a19.56,19.56,0,0,1,9,5c4,4-8,2-8,2l-6,5s16,2,15,7-9,4-9,4,13,4,15,7,3,1-6,1-12,6.83-7,7c14.5.5,11,5,11,5s-5.5-.5-9,2c-4.38,3.13-2,5-2,5l2,10s-4,10-8,7-4,11-4,11-2,7-4,9-7,4,3,11-5,3-5,3l-9,6c-3,2,3,11,6,15s0,16-2,17-18-1-17,3,13,23,10,24-14,2-9,6-10,29-15,23-12,1-14,10-8,9-8,9,5-10,0-13-8,10-8,10-1,10-6,8-6-8-9-10-24-6-25-3-16,8-16,8,11-7,7-10-9,1-9,1-18,4-17,12-19,18-15,5,13-6,9-11-18-6-18-6l-5,13-9-10s-7-4-9,0-12-10-14-5S224.5,303.5,217.5,314.5Z"/><path class="cls-3" d="M293,423c14.66-2.44-26-6-27-16s-2-29-4-36-3-12,0-23,2-22-2-24-11-1-7-13,3-19,4-26-3-13,0-20-5-16-5-16-19-1-17,9,4,14,0,19,5,19,0,24-18-1-14-8,3-11,4-19-7-16-16-13-10,14-9,21-3,17,8,31,23,26,20,41,8,37,4,44,0,17-14,22a162.69,162.69,0,0,1-29,7s36-4,47-4,24,2,24-2,10,0,10,0S287,424,293,423Z"/><path class="cls-3" d="M293.25,82.17c-9.65,22.32-26.56,45.08-26.57,51.24s-11.57,20.63-.45,11.25S302,76.2,306.94,66.84C312.29,56.7,310.61,48.15,293.25,82.17Z"/><path class="cls-3" d="M139,205.36c-33.7-23.6-45.37-29.43-49.32-30.36-.82-.19-4.73,0-5.44-.43-4.61-3-2.72-5.92,4.29-5.58,9.48.46,24.32,16.41,33.17,21.06,14.22,7.46,27.11,12,22.13,13.55C141.79,204.24,140.83,206.61,139,205.36Z"/><path class="cls-3" d="M160.7,74.23c41.89,39.47,57.69,97.21,57.69,97.21s2.8,9-5.78,5-4.89-10.14-7.64-19.75C197.44,130.25,152.57,64.09,160.7,74.23Z"/><path class="cls-3" d="M382.32,214.47c-34.25-15.24-66.94-9-66.94-9s-5.23.76-.07,5,6.55.24,12-.73C342.41,207.07,390.11,216.73,382.32,214.47Z"/></svg>